<svg width="25" height="32" viewBox="0 0 25 32" fill="none" xmlns="http://www.w3.org/2000/svg">
<g clip-path="url(#clip0_1_990)">
<path fill-rule="evenodd" clip-rule="evenodd" d="M21.1153 13.7284L13.6153 6.65219C13.6116 6.64899 13.6082 6.64554 13.605 6.64188C13.0328 6.1215 12.1587 6.1215 11.5865 6.64188L11.5762 6.65219L4.08466 13.7284C3.77571 14.0125 3.59991 14.4131 3.59998 14.8328V23.5C3.59998 24.3284 4.27155 25 5.09998 25H9.59998C10.4284 25 11.1 24.3284 11.1 23.5V19H14.1V23.5C14.1 24.3284 14.7715 25 15.6 25H20.1C20.9284 25 21.6 24.3284 21.6 23.5V14.8328C21.6 14.4131 21.4242 14.0125 21.1153 13.7284ZM20.1 23.5H15.6V19C15.6 18.1716 14.9284 17.5 14.1 17.5H11.1C10.2715 17.5 9.59998 18.1716 9.59998 19V23.5H5.09998V14.8328L5.11029 14.8234L12.6 7.75L20.0906 14.8216L20.1009 14.8309L20.1 23.5Z" fill="#6B7582"/>
</g>
<defs>
<clipPath id="clip0_1_990">
<rect width="24" height="24" fill="white" transform="translate(0.599976 4)"/>
</clipPath>
</defs>
</svg>
