<svg width="25" height="32" viewBox="0 0 25 32" fill="none" xmlns="http://www.w3.org/2000/svg">
<g clip-path="url(#clip0_1_747)">
<path fill-rule="evenodd" clip-rule="evenodd" d="M12.25 6.25C8.82597 6.24925 5.65249 8.04466 3.88954 10.98C2.12659 13.9153 2.03258 17.5602 3.64188 20.5825L2.57781 23.7747C2.39805 24.3137 2.53831 24.9081 2.94011 25.3099C3.34191 25.7117 3.93626 25.852 4.47531 25.6722L7.6675 24.6081C11.2494 26.5133 15.6367 26.0013 18.6836 23.3225C21.7306 20.6438 22.8003 16.3582 21.3697 12.5618C19.939 8.76543 16.307 6.25166 12.25 6.25ZM8.125 17.125C7.50368 17.125 7 16.6213 7 16C7 15.3787 7.50368 14.875 8.125 14.875C8.74632 14.875 9.25 15.3787 9.25 16C9.25 16.6213 8.74632 17.125 8.125 17.125ZM12.25 17.125C11.6287 17.125 11.125 16.6213 11.125 16C11.125 15.3787 11.6287 14.875 12.25 14.875C12.8713 14.875 13.375 15.3787 13.375 16C13.375 16.6213 12.8713 17.125 12.25 17.125ZM16.375 17.125C15.7537 17.125 15.25 16.6213 15.25 16C15.25 15.3787 15.7537 14.875 16.375 14.875C16.9963 14.875 17.5 15.3787 17.5 16C17.5 16.6213 16.9963 17.125 16.375 17.125Z" fill="#121417"/>
</g>
<defs>
<clipPath id="clip0_1_747">
<rect width="24" height="24" fill="white" transform="translate(0.25 4)"/>
</clipPath>
</defs>
</svg>
