<svg width="25" height="24" viewBox="0 0 25 24" fill="none" xmlns="http://www.w3.org/2000/svg">
<g clip-path="url(#clip0_1_1081)">
<path fill-rule="evenodd" clip-rule="evenodd" d="M14.5 10.5C14.5 10.9142 14.1642 11.25 13.75 11.25H10.75C10.3358 11.25 10 10.9142 10 10.5C10 10.0858 10.3358 9.75 10.75 9.75H13.75C14.1642 9.75 14.5 10.0858 14.5 10.5ZM22 6.75V18.75C22 19.5784 21.3284 20.25 20.5 20.25H4C3.17157 20.25 2.5 19.5784 2.5 18.75V6.75C2.5 5.92157 3.17157 5.25 4 5.25H7.75V4.5C7.75 3.25736 8.75736 2.25 10 2.25H14.5C15.7426 2.25 16.75 3.25736 16.75 4.5V5.25H20.5C21.3284 5.25 22 5.92157 22 6.75ZM9.25 5.25H15.25V4.5C15.25 4.08579 14.9142 3.75 14.5 3.75H10C9.58579 3.75 9.25 4.08579 9.25 4.5V5.25ZM20.5 10.6509V6.75H4V10.6509C6.53146 12.0289 9.36782 12.7505 12.25 12.75C15.1322 12.7505 17.9685 12.0289 20.5 10.6509Z" fill="#121417"/>
</g>
<defs>
<clipPath id="clip0_1_1081">
<rect width="24" height="24" fill="white" transform="translate(0.25)"/>
</clipPath>
</defs>
</svg>
