<svg width="25" height="24" viewBox="0 0 25 24" fill="none" xmlns="http://www.w3.org/2000/svg">
<g clip-path="url(#clip0_1_83)">
<path fill-rule="evenodd" clip-rule="evenodd" d="M20.5 5.25H16.75V4.5C16.75 3.25736 15.7426 2.25 14.5 2.25H10C8.75736 2.25 7.75 3.25736 7.75 4.5V5.25H4C3.17157 5.25 2.5 5.92157 2.5 6.75V18.75C2.5 19.5784 3.17157 20.25 4 20.25H20.5C21.3284 20.25 22 19.5784 22 18.75V6.75C22 5.92157 21.3284 5.25 20.5 5.25ZM9.25 4.5C9.25 4.08579 9.58579 3.75 10 3.75H14.5C14.9142 3.75 15.25 4.08579 15.25 4.5V5.25H9.25V4.5ZM20.5 6.75V10.6509C17.9685 12.0289 15.1322 12.7505 12.25 12.75C9.36794 12.7505 6.53165 12.0292 4 10.6519V6.75H20.5ZM20.5 18.75H4V12.3413C6.56868 13.5977 9.3905 14.2506 12.25 14.25C15.1096 14.2501 17.9313 13.5969 20.5 12.3403V18.75ZM10 10.5C10 10.0858 10.3358 9.75 10.75 9.75H13.75C14.1642 9.75 14.5 10.0858 14.5 10.5C14.5 10.9142 14.1642 11.25 13.75 11.25H10.75C10.3358 11.25 10 10.9142 10 10.5Z" fill="#61758A"/>
</g>
<defs>
<clipPath id="clip0_1_83">
<rect width="24" height="24" fill="white" transform="translate(0.25)"/>
</clipPath>
</defs>
</svg>
