<svg width="25" height="32" viewBox="0 0 25 32" fill="none" xmlns="http://www.w3.org/2000/svg">
<g clip-path="url(#clip0_1_1018)">
<path fill-rule="evenodd" clip-rule="evenodd" d="M22.0497 24.625C21.9156 24.8571 21.668 25.0001 21.4 25H3.39996C3.13215 24.9997 2.88481 24.8567 2.75102 24.6247C2.61723 24.3927 2.61731 24.1069 2.75121 23.875C4.17903 21.4066 6.37934 19.6366 8.94715 18.7975C6.33641 17.2433 5.08581 14.1364 5.89178 11.2069C6.69775 8.27741 9.36163 6.24745 12.4 6.24745C15.4383 6.24745 18.1022 8.27741 18.9081 11.2069C19.7141 14.1364 18.4635 17.2433 15.8528 18.7975C18.4206 19.6366 20.6209 21.4066 22.0487 23.875C22.183 24.1069 22.1833 24.3928 22.0497 24.625Z" fill="#121417"/>
</g>
<defs>
<clipPath id="clip0_1_1018">
<rect width="24" height="24" fill="white" transform="translate(0.399963 4)"/>
</clipPath>
</defs>
</svg>
